<svg xmlns="http://www.w3.org/2000/svg" width="1200" height="720" viewBox="0 0 1200 720" role="img" aria-label="Video analytics dashboard preview">
  <rect width="1200" height="720" fill="#f5f1e8"/>
  <circle cx="160" cy="140" r="220" fill="#f7ae4a" opacity=".22"/>
  <circle cx="1020" cy="110" r="190" fill="#1d8f62" opacity=".18"/>
  <text x="70" y="110" font-family="Avenir Next, Segoe UI, sans-serif" font-size="76" font-weight="800" fill="#17201b">Video Analytics</text>
  <rect x="70" y="175" width="350" height="390" rx="28" fill="#ffffff" opacity=".72"/>
  <rect x="450" y="175" width="680" height="390" rx="28" fill="#17201b"/>
  <rect x="490" y="220" width="600" height="300" rx="20" fill="#2a3b32"/>
  <circle cx="650" cy="365" r="46" fill="#1d8f62"/>
  <rect x="92" y="215" width="286" height="46" rx="23" fill="#17201b"/>
  <rect x="92" y="292" width="260" height="22" rx="11" fill="#d9e2d7"/>
  <rect x="92" y="335" width="220" height="22" rx="11" fill="#d9e2d7"/>
  <rect x="92" y="378" width="250" height="22" rx="11" fill="#d9e2d7"/>
  <rect x="70" y="595" width="1060" height="58" rx="29" fill="#ffffff" opacity=".72"/>
  <circle cx="220" cy="624" r="13" fill="#17201b"/>
  <circle cx="500" cy="624" r="13" fill="#1d8f62"/>
  <circle cx="830" cy="624" r="13" fill="#f7ae4a"/>
</svg>

